<svg id="Layer_1" data-name="Layer 1" xmlns="http://www.w3.org/2000/svg" viewBox="0 0 500 500" width="500" height="500" class="illustration"><defs><style>.cls-1{fill:#4bc487;}.cls-2{fill:#32ad6d;}.cls-3{fill:#ffd44d;}.cls-4{fill:#fff;}</style></defs><title>Startups</title><path class="cls-1" d="M348.55,33.85,329.86,91.26l-1.39,4.24-8.67,26.66-.06.19-27.95-.62L184.53,119.3l-7.84-22.44-1.32-3.76L154.61,33.85C219,56.14,272.08,7.4,348.55,33.85Z"></path><path class="cls-2" d="M328.47,95.5l-8.67,26.66-28-.43L184.53,119.3l-7.84-22.44C213.56,96.21,277,95.35,328.47,95.5Z"></path><path class="cls-1" d="M448.3,419.72a84.28,84.28,0,0,1-80.44,59.1H124.94a78.09,78.09,0,0,1-75.27-57.35,245,245,0,0,1-8.74-59.23c0-1.9-.06-3.81-.06-5.72q0-3.37.1-6.75c2-71.67,37-138.41,93.2-182.92l58.11-46,133,3.08,73.11,70a161.22,161.22,0,0,1,26.79,33A236.63,236.63,0,0,1,448.3,419.72Z"></path><rect class="cls-3" x="145.01" y="111.35" width="216.42" height="34.32" rx="17.16"></rect><path class="cls-2" d="M448.3,419.72a84.28,84.28,0,0,1-80.44,59.1H124.94a78.09,78.09,0,0,1-75.27-57.35,245,245,0,0,1-8.74-59.23c40.19,38.32,87.55,88.42,198.25,89.95,137.46,1.91,196.7-62.52,207.34-179.34A236.35,236.35,0,0,1,448.3,419.72Z"></path><path class="cls-4" d="M245.94,379.86V366.38q-25.31-2.58-45.43-20.12L214,330.19q15.51,13.49,31.95,16.07V310.43q-20.87-5-30.56-13.11t-9.7-24.1q0-16,11.17-26.13T245.94,236v-9.23h11.81v9.41q20.31,1.5,38.42,13.86l-12,17a59.52,59.52,0,0,0-26.41-10.72V291h.56q21.24,5,31.2,13.48t10,24.65q0,16.17-11.45,26.31t-30.29,11.09v13.29Zm-13-119.19a13.2,13.2,0,0,0-4.7,10.34q0,6.18,3.7,9.78t14,6.93v-32Q237.63,256.51,232.91,260.67Zm38.88,81A13.3,13.3,0,0,0,277,330.93q0-6.46-4.06-10.25t-15.15-7.11v33.24Q266.62,345.9,271.79,341.64Z"></path></svg>