<svg width="632" height="476" viewBox="0 0 632 476" fill="none" xmlns="http://www.w3.org/2000/svg">
<g clip-path="url(#clip0_78_1730)">
<path opacity="0.18" d="M601.476 409.587C596.683 418.139 591.194 426.42 584.026 433.1C579.86 436.923 575.297 440.292 570.416 443.148C566.757 445.37 562.961 447.364 559.135 449.268C535.394 461.131 510.428 470.348 484.086 473.884C456.625 477.587 428.726 475.955 401.34 472.57C364.488 468.036 328 460.299 290.951 458.124C264.231 456.537 237.42 457.836 210.806 459.846C186.611 461.659 161.887 464.017 137.95 460.617C133.715 460.012 129.496 459.227 125.308 458.229C88.7433 449.495 57.0482 424.244 37.6923 392.043C20.8165 363.981 1.83867 310.609 16.6126 279.132C32.3543 245.616 74.9977 222.859 102.928 200.902C114.239 192.017 125.429 182.225 131.871 169.365C139.038 155.025 139.568 138.433 142.547 122.672C152.194 71.6417 190.86 27.1093 240.067 10.3662C309.264 -13.1921 392.796 2.43282 433.625 67.1688C435.641 70.3422 437.516 73.5759 439.25 76.8702C450.849 98.3733 462.659 121.78 471.626 144.296C480.699 167.204 500.357 186.607 518.503 202.579C538.479 220.259 560.194 235.99 578.99 254.909C597.787 273.828 613.861 296.661 619.093 322.803C624.824 352.361 616.235 383.293 601.476 409.587Z" fill="#6DBCDB"/>
<path opacity="0.18" d="M570.4 443.149C566.741 445.37 562.945 447.365 559.12 449.269C535.378 461.131 510.412 470.349 484.07 473.885C456.609 477.587 428.71 475.955 401.324 472.57C364.472 468.037 327.984 460.3 290.935 458.124C264.215 456.537 237.404 457.837 210.79 459.846C186.595 461.66 161.871 464.017 137.934 460.617L131.976 383.309L435 312.166L570.4 443.149Z" fill="#6DBCDB"/>
<path d="M128.679 353.902L315.675 268.933C317.685 267.834 319.894 267.145 322.173 266.906C324.453 266.667 326.757 266.884 328.952 267.542L435.772 282.034C441.82 283.862 440.308 308.75 435.015 312.166L261.327 423.126C257.906 425.317 254.013 426.662 249.969 427.051C245.925 427.439 241.846 426.861 238.07 425.363L131.976 383.294C126.154 380.997 123.19 356.91 128.679 353.902Z" fill="white"/>
<path d="M128.679 353.902L315.675 268.933C317.685 267.834 319.894 267.145 322.173 266.906C324.453 266.667 326.757 266.884 328.952 267.542L435.772 282.034C441.82 283.862 440.308 308.75 435.015 312.166L261.327 423.126C257.906 425.317 254.013 426.662 249.969 427.051C245.925 427.439 241.846 426.861 238.07 425.363L131.976 383.294C126.154 380.997 123.19 356.91 128.679 353.902Z" fill="url(#paint0_linear_78_1730)"/>
<path d="M131.19 351.757L315.675 250.739C317.686 249.64 319.895 248.951 322.174 248.712C324.453 248.474 326.757 248.69 328.952 249.349L433.156 280.629C434.514 281.036 435.726 281.825 436.648 282.901C437.571 283.976 438.166 285.294 438.361 286.697C438.557 288.1 438.346 289.53 437.753 290.816C437.16 292.103 436.21 293.193 435.016 293.957L261.328 404.933C257.902 407.112 254.009 408.45 249.966 408.836C245.924 409.222 241.847 408.646 238.07 407.154L131.976 365.1C130.675 364.577 129.55 363.696 128.731 362.559C127.912 361.422 127.433 360.076 127.351 358.677C127.268 357.279 127.585 355.885 128.265 354.66C128.945 353.435 129.959 352.428 131.19 351.757Z" fill="white"/>
<path opacity="0.52" d="M141.427 350.2L313.437 256.028C315.31 255.003 317.368 254.361 319.491 254.138C321.614 253.915 323.761 254.115 325.806 254.728L423.039 283.892C424.306 284.273 425.437 285.01 426.298 286.014C427.158 287.018 427.712 288.248 427.894 289.558C428.075 290.868 427.877 292.202 427.322 293.402C426.767 294.602 425.879 295.618 424.763 296.329L262.749 399.764C259.561 401.804 255.933 403.056 252.166 403.419C248.398 403.781 244.598 403.243 241.079 401.85L142.168 362.561C140.976 362.065 139.947 361.244 139.198 360.192C138.45 359.141 138.012 357.9 137.935 356.612C137.858 355.323 138.144 354.039 138.762 352.906C139.379 351.772 140.302 350.835 141.427 350.2Z" fill="#6DBCDB"/>
<path d="M290.754 275.082L313.694 262.389L408.25 298.777L382.876 312.906L290.754 275.082Z" fill="white"/>
<path d="M259.755 293.563L282.695 280.87L377.251 317.273L351.877 331.402L259.755 293.563Z" fill="white"/>
<path d="M228.755 312.06L251.695 299.366L346.266 335.754L320.892 349.883L228.755 312.06Z" fill="white"/>
<path d="M197.756 330.541L220.711 317.847L315.267 354.25L289.893 368.379L197.756 330.541Z" fill="white"/>
<path d="M166.771 349.037L189.711 336.343L284.267 372.731L258.893 386.86L166.771 349.037Z" fill="white"/>
<path d="M194.429 158.546C194.429 158.546 184.343 160.148 180.366 164.409C176.389 168.67 154.825 202.973 154.825 202.973C154.825 202.973 146.735 211.495 154.825 214.261C162.915 217.026 165.259 216.165 165.683 214.261C166.106 212.357 166.953 209.365 166.953 209.365C166.953 209.365 167.815 208.941 168.873 206.811C169.566 205.573 169.93 204.179 169.932 202.761C169.741 201.814 169.458 200.887 169.085 199.996L187.231 177.45L193.28 172.765L194.429 158.546Z" fill="#FFBBAB"/>
<path d="M261.418 142.271C261.519 142.936 261.457 143.615 261.236 144.251C260.805 144.898 260.244 145.449 259.588 145.868C258.125 147.368 256.817 149.014 255.687 150.779C254.356 152.426 252.33 153.801 250.288 153.333C249.715 153.123 249.122 152.971 248.519 152.879C247.917 152.933 247.34 153.144 246.847 153.491C246.353 153.839 245.959 154.311 245.706 154.859C245.215 155.974 244.535 156.997 243.695 157.881C241.911 159.392 239.295 158.682 237.117 157.972C235.86 157.703 234.736 157.002 233.942 155.992C233.591 155.304 233.41 154.543 233.412 153.771C233.412 151.927 233.518 150.084 233.518 148.255C233.518 142.347 231.704 136.408 232.838 130.605C233.461 127.41 235.011 124.467 237.293 122.143C239.575 119.82 242.49 118.217 245.676 117.534C248.491 117.119 251.365 117.535 253.946 118.729C256.528 119.924 258.704 121.846 260.208 124.259C263.338 129.125 261.146 136.665 261.418 142.271Z" fill="#FFBBAB"/>
<path d="M259.559 181.726C259.559 181.726 269.781 192.788 273.395 193.211C277.009 193.634 305.151 162.792 305.151 162.792C306.121 162.675 307.039 162.289 307.8 161.677C308.562 161.065 309.137 160.253 309.46 159.332C310.088 157.523 310.305 155.598 310.095 153.695C310.082 153.141 309.991 152.592 309.823 152.063C309.423 151.202 308.834 150.443 308.099 149.842C307.323 149.038 306.419 148.369 305.423 147.862C304.932 147.602 304.384 147.465 303.827 147.465C303.271 147.465 302.723 147.602 302.232 147.862C301.588 148.328 301.068 148.946 300.72 149.66C299.631 151.519 298.527 153.756 299.42 155.705C299.623 156.025 299.752 156.386 299.798 156.763C299.741 157.221 299.514 157.642 299.162 157.941C291.958 165.799 283.47 172.375 274.06 177.389C273.782 177.563 273.465 177.667 273.138 177.692C272.713 177.657 272.31 177.488 271.989 177.208C269.962 175.803 267.981 174.352 266.016 172.871C263.298 175.366 261.103 178.376 259.559 181.726Z" fill="#FFBBAB"/>
<path d="M227.878 154.33L226.835 156.264C224.264 161.15 221.683 166.026 219.093 170.891C217.732 173.445 215.902 179.308 213.256 180.698C212.02 181.244 210.645 181.387 209.324 181.106C205.392 180.578 200.523 178.084 197.65 177.344C196.643 177.007 195.574 176.898 194.52 177.026C193.025 177.529 191.731 178.498 190.83 179.792C186.162 185.192 181.233 190.349 176.041 195.266C175.01 196.351 173.804 197.256 172.472 197.94C169.554 199.24 166.424 198.348 163.399 196.837C162.204 196.247 161.043 195.592 159.921 194.873C159.23 194.523 158.669 193.962 158.318 193.271C157.819 191.971 158.878 190.642 159.83 189.614C163.569 185.56 166.789 181.057 169.418 176.21C171.852 171.677 173.954 166.796 177.825 163.532C185.462 157.17 198.315 158.062 207.827 156.868C209.475 156.657 218.261 156.445 223.659 155.659C225.837 155.342 227.455 154.934 227.848 154.405L227.878 154.33Z" fill="#6DBCDB"/>
<path d="M244.603 232.575C244.603 232.575 272.774 234.887 276.177 242.337C279.579 249.787 282.997 295.725 282.997 295.725L267.013 301.104L263.399 260.47C263.399 260.47 217.686 258.793 212.121 252.749C208.673 248.891 206.286 244.205 205.195 239.149L244.603 232.575Z" fill="#282328"/>
<path d="M242.803 237.985C242.803 237.985 239.128 279.132 234.44 282.548C229.753 285.963 201.944 326.083 201.944 326.083L187.14 317.862L210.185 274.463L213.104 240.947L242.803 237.985Z" fill="#473F47"/>
<path d="M254.235 170.529C254.235 170.529 254.235 170.665 254.235 170.741C253.388 176.437 252.526 182.149 251.68 187.831L251.498 189.04C250.127 198.197 248.761 207.35 247.4 216.497C246.448 222.813 245.51 229.13 243.998 235.31C243.832 236.29 243.427 237.214 242.818 238C242.032 238.736 241.05 239.229 239.991 239.421C233.155 241.249 225.973 241.037 218.82 240.796C214.233 240.838 209.66 240.295 205.211 239.179C203.502 238.665 201.627 237.668 201.249 236.005C201.15 235.42 201.15 234.823 201.249 234.237C202.065 227.83 204.273 221.62 204.742 215.167C204.923 212.326 204.742 209.455 205.014 206.614C205.241 204.257 205.74 201.93 206.148 199.603C206.375 198.394 206.571 197.185 206.692 195.961C206.949 193.407 206.889 190.838 207.297 188.3C207.744 185.87 208.418 183.487 209.309 181.182C209.309 181.077 209.308 180.986 209.414 180.88C210.927 176.679 212.439 172.493 214.057 168.383C215.217 165.273 216.821 162.346 218.82 159.694C219.547 158.794 220.369 157.973 221.27 157.246C222.008 156.663 222.803 156.157 223.644 155.735C224.709 155.169 225.857 154.776 227.046 154.572C227.306 154.527 227.569 154.496 227.833 154.481C229.556 154.363 231.287 154.449 232.989 154.738C237.737 155.357 244.603 155.448 249.366 158.093C251.3 159.083 252.86 160.674 253.812 162.626C254.711 165.165 254.858 167.909 254.235 170.529Z" fill="#6DBCDB"/>
<path d="M303.819 166.343C303.925 168.021 302.609 169.365 301.369 170.574L277.704 192.909C277.356 193.241 276.993 193.573 276.615 193.891C275.969 194.472 275.227 194.937 274.423 195.266C273.794 195.484 273.137 195.606 272.472 195.629C271.403 195.627 270.338 195.506 269.296 195.266C262.958 194.017 256.948 191.464 251.649 187.771C244.088 182.255 239.824 174.065 244.209 163.185C244.571 162.236 245.016 161.32 245.54 160.45C245.874 159.71 246.413 159.082 247.094 158.639C247.775 158.197 248.569 157.96 249.381 157.957C250.969 158.181 252.456 158.863 253.66 159.921C257.456 162.792 261.085 165.845 264.699 168.988C265.758 169.879 266.907 170.877 268.102 171.813C269.798 173.215 271.687 174.366 273.712 175.229C274.16 175.437 274.658 175.516 275.148 175.455C275.556 175.329 275.932 175.118 276.252 174.836C282.956 169.688 289.675 164.575 296.41 159.498C296.683 159.222 297.016 159.011 297.382 158.88C297.749 158.749 298.14 158.702 298.527 158.742C299.033 158.956 299.457 159.327 299.736 159.8L302.398 163.381C302.726 163.803 303.024 164.247 303.29 164.711C303.589 165.207 303.77 165.766 303.819 166.343Z" fill="#6DBCDB"/>
<path d="M230.888 182.618C229.574 183.253 228.464 184.242 227.682 185.474C225.504 188.632 223.932 192.485 220.907 194.963C216.885 198.242 211.169 198.212 206.133 199.602C206.36 198.394 206.557 197.185 206.678 195.961C206.935 193.407 206.874 190.838 207.283 188.299C207.73 185.869 208.403 183.487 209.294 181.182C205.362 180.653 200.493 178.16 197.62 177.419C196.613 177.082 195.544 176.974 194.49 177.102C192.995 177.604 191.701 178.574 190.8 179.867C186.132 185.267 181.203 190.425 176.011 195.341C174.98 196.427 173.774 197.331 172.442 198.016C169.524 199.315 166.393 198.424 163.369 196.913C163.354 196.823 163.354 196.731 163.369 196.641C163.387 196.129 163.597 195.643 163.959 195.281C171.459 185.897 179.884 177.291 189.106 169.592C197.363 162.52 208.039 160.011 218.488 157.881L221.3 157.322C223.145 156.974 224.99 156.657 226.85 156.415C230.634 155.833 234.484 155.833 238.267 156.415C241.064 157.012 243.615 158.44 245.586 160.51C248.731 163.532 251.332 167.552 254.281 170.529L255.082 171.314C261.516 177.015 268.343 182.256 275.512 187C276.001 187.422 276.62 187.662 277.266 187.68C277.799 187.579 278.293 187.327 278.687 186.954C285.852 181.242 292.65 175.084 299.041 168.519C300.201 167.262 301.449 166.091 302.776 165.013C302.925 164.893 303.087 164.792 303.26 164.711C303.56 165.207 303.741 165.766 303.79 166.343C303.895 168.02 302.58 169.365 301.34 170.574L277.705 192.908C277.357 193.241 276.994 193.573 276.616 193.89L276.374 194.011C275.118 194.653 273.814 195.194 272.472 195.628C271.404 195.627 270.338 195.505 269.297 195.266C262.958 194.016 256.949 191.464 251.65 187.77L251.468 188.979C251.193 188.791 250.93 188.584 250.682 188.36C249.714 187.498 248.973 186.426 248.036 185.534C245.011 182.663 240.475 182.134 236.362 181.862C228.045 181.333 228.952 189.206 227.833 195.825C226.563 203.39 225.661 211.006 225.126 218.673C224.733 224.173 224.537 229.794 222.616 234.962C222.146 236.627 221.108 238.076 219.682 239.058C218.633 239.574 217.48 239.848 216.31 239.858C212.507 240.097 208.69 239.802 204.969 238.982C204.251 238.919 203.558 238.686 202.948 238.303C202.338 237.919 201.828 237.396 201.461 236.776C201.207 235.928 201.207 235.024 201.461 234.177L208.024 198.439" fill="url(#paint1_linear_78_1730)"/>
<path d="M185.976 322.562C184.584 323.831 182.845 324.919 182.225 326.687C181.925 327.666 181.873 328.705 182.074 329.709C182.679 333.381 184.993 336.524 187.216 339.516L189.786 342.947L194.066 348.674C195.042 350.156 196.283 351.447 197.725 352.482C200.06 353.665 202.675 354.188 205.286 353.993C206.414 354.084 207.548 353.935 208.613 353.555C209.138 353.355 209.588 352.998 209.902 352.533C210.216 352.068 210.379 351.517 210.367 350.956C210.216 349.444 208.567 348.689 207.343 347.933C203.487 345.425 202.08 340.559 200.961 336.101C200.19 333.079 199.449 329.77 200.235 326.702C200.508 325.66 200.961 324.662 201.188 323.604C201.318 323.094 201.341 322.561 201.255 322.041C201.169 321.521 200.976 321.024 200.689 320.582C200.156 319.981 199.48 319.524 198.723 319.252C196.433 318.259 194.039 317.524 191.586 317.061C188.894 316.321 187.715 320.96 185.976 322.562Z" fill="#FFBBAB"/>
<path d="M271.564 305.229C271.489 307.33 272.033 309.763 273.863 310.775C274.763 311.242 275.769 311.466 276.781 311.425C279.114 311.471 281.429 311.017 283.571 310.095C287.336 308.463 290.406 305.471 294.156 303.915C295.241 303.58 296.262 303.07 297.181 302.404C297.636 302.064 297.966 301.583 298.12 301.037C298.273 300.49 298.24 299.908 298.027 299.381C297.649 298.732 296.908 298.369 296.425 297.87C295.941 297.372 295.729 296.359 295.079 295.906C293.96 295.075 292.432 295.906 291.238 296.631C288.985 297.979 286.478 298.848 283.873 299.185C283.509 299.261 283.134 299.261 282.77 299.185C281.378 298.747 281.424 296.601 280.229 295.77C278.505 294.606 274.014 297.069 272.819 298.505C271.474 300.092 271.61 303.129 271.564 305.229Z" fill="#FFBBAB"/>
<path d="M265.622 130.077C263.339 133.265 259.377 135.033 257.471 138.448C255.566 141.863 256.05 147.077 253.056 149.963C251.827 151.039 250.326 151.755 248.716 152.033C246.886 152.456 244.905 152.607 243.106 153.076C241.923 153.297 240.854 153.922 240.081 154.844C239.159 156.143 240.081 157.972 240.172 159.377C240.463 161.575 240.351 163.808 239.839 165.965C239.386 167.371 238.643 168.665 237.658 169.766C236.674 170.867 235.47 171.75 234.123 172.357C231.423 173.577 228.459 174.097 225.504 173.869C224.852 173.768 224.186 173.857 223.584 174.125C223.229 174.431 222.944 174.809 222.748 175.234C222.553 175.659 222.451 176.121 222.449 176.589C221.784 181.349 220.574 186.426 216.915 189.539C215.308 190.83 213.448 191.772 211.456 192.304C207.931 193.372 204.197 193.553 200.585 192.831C196.973 192.108 193.596 190.505 190.754 188.164C189.201 186.813 187.869 185.228 186.808 183.464C185.422 181.211 184.521 178.695 184.162 176.075C183.803 173.455 183.993 170.79 184.721 168.247C186.233 163.533 189.635 158.969 188.486 154.164C188.063 152.426 187.065 150.885 186.535 149.177C185.933 146.601 185.902 143.924 186.445 141.334C186.633 138.991 187.329 136.717 188.486 134.67C189.804 132.787 191.606 131.294 193.703 130.349C202.338 126.072 212.862 126.737 221.3 122.053C228.68 117.942 233.972 109.964 242.229 108.135C244.642 107.597 247.133 107.51 249.578 107.878C251.982 108.286 253.328 109.949 255.536 110.659C256.871 110.871 258.221 110.977 259.573 110.976C261.676 111.475 263.497 112.784 264.639 114.618C265.744 116.146 266.564 117.861 267.059 119.68C267.607 121.411 267.762 123.242 267.514 125.04C267.265 126.839 266.619 128.559 265.622 130.077Z" fill="#FC682D"/>
<path d="M265.622 130.077C263.339 133.265 259.377 135.033 257.472 138.448C255.566 141.863 256.05 147.077 253.056 149.963C251.828 151.039 250.326 151.755 248.716 152.033C246.886 152.456 244.905 152.607 243.106 153.076C241.923 153.297 240.854 153.922 240.082 154.844C239.159 156.143 240.082 157.972 240.172 159.377C240.463 161.575 240.351 163.808 239.84 165.966C239.386 167.371 238.643 168.665 237.659 169.766C236.674 170.867 235.47 171.75 234.124 172.358C231.423 173.577 228.459 174.097 225.504 173.869C224.853 173.768 224.186 173.857 223.584 174.126C223.229 174.431 222.944 174.809 222.749 175.234C222.553 175.659 222.451 176.121 222.45 176.589C221.784 181.349 220.574 186.426 216.915 189.539C215.308 190.83 213.448 191.772 211.456 192.304C207.931 193.372 204.197 193.553 200.585 192.831C196.973 192.108 193.596 190.505 190.754 188.164C189.201 186.813 187.869 185.228 186.808 183.464C189.575 184.724 192.525 185.535 195.548 185.867C198.926 186.007 202.3 185.494 205.483 184.356C209.1 183.355 212.431 181.517 215.206 178.991C216.581 177.717 217.626 176.129 218.253 174.363C218.879 172.598 219.069 170.707 218.805 168.852C222.022 168.548 225.019 167.09 227.243 164.748C229.467 162.406 230.767 159.339 230.903 156.113C228.415 156.648 225.885 156.956 223.342 157.035C230.463 154.695 236.783 150.402 241.579 144.644C240.931 145.56 240.45 146.583 240.157 147.666C241.568 147.91 243.016 147.821 244.387 147.406C245.757 146.992 247.012 146.263 248.051 145.278C249.075 144.282 249.889 143.091 250.445 141.775C251.001 140.459 251.287 139.045 251.287 137.617C251.209 136.9 251.341 136.176 251.665 135.532C252.027 135.111 252.49 134.788 253.011 134.595C257.392 132.42 261.106 129.105 263.762 124.999C264.721 123.142 265.834 121.368 267.089 119.695C267.63 121.426 267.779 123.256 267.526 125.051C267.272 126.847 266.622 128.563 265.622 130.077Z" fill="url(#paint2_linear_78_1730)"/>
<path d="M358.832 99.3709L284.978 131.769V70.5388L358.832 38.1406V99.3709Z" stroke="white" stroke-width="0.971429" stroke-miterlimit="10"/>
<path d="M350.274 82.5822C350.22 84.3644 349.636 86.0901 348.595 87.5386C347.599 89.0398 346.185 90.2166 344.528 90.9235L305.09 106.639C301.914 107.908 299.344 106.216 299.344 102.861C299.397 101.079 299.982 99.3533 301.022 97.9048C302.022 96.4033 303.434 95.2226 305.09 94.5048L306.436 93.9759C306.153 92.9935 306.01 91.976 306.012 90.9537C306.13 87.4403 307.282 84.0395 309.324 81.1768C311.286 78.2077 314.063 75.8675 317.324 74.4373L320.681 73.1075C325.051 71.3697 328.846 72.4728 330.737 75.5404C331.615 74.6934 332.64 74.0124 333.761 73.5306L334.623 73.183C338.388 71.6719 341.443 73.6817 341.443 77.7164V78.0791C341.438 78.7818 341.352 79.4816 341.186 80.1644L344.452 78.8648C347.703 77.5351 350.274 79.2275 350.274 82.5822Z" fill="white"/>
<path opacity="0.82" d="M403.275 221.242C403.275 223.848 402.384 226.377 400.751 228.41C399.118 230.443 396.84 231.858 394.293 232.422C391.746 232.986 389.083 232.665 386.744 231.513C384.404 230.36 382.528 228.444 381.425 226.081C380.322 223.719 380.059 221.051 380.679 218.519C381.298 215.987 382.764 213.741 384.833 212.154C386.902 210.566 389.451 209.732 392.059 209.788C394.667 209.844 397.178 210.787 399.177 212.462C400.461 213.537 401.493 214.881 402.201 216.398C402.909 217.914 403.275 219.568 403.275 221.242Z" fill="#6DBCDB"/>
<path opacity="0.55" d="M399.828 216.27C399.832 218.451 399.213 220.586 398.043 222.426C396.873 224.267 395.201 225.734 393.225 226.657C391.248 227.579 389.049 227.918 386.886 227.634C384.723 227.349 382.686 226.453 381.016 225.05C380.19 222.686 380.161 220.117 380.935 217.735C381.709 215.354 383.243 213.291 385.301 211.863C387.359 210.435 389.829 209.721 392.333 209.829C394.836 209.937 397.235 210.862 399.162 212.462C399.601 213.684 399.826 214.972 399.828 216.27Z" fill="white"/>
<path opacity="0.82" d="M390.089 184.068C390.089 185.202 389.753 186.31 389.122 187.252C388.492 188.194 387.596 188.928 386.548 189.361C385.5 189.794 384.347 189.907 383.234 189.684C382.122 189.462 381.101 188.915 380.3 188.113C379.499 187.31 378.955 186.288 378.735 185.176C378.516 184.065 378.631 182.913 379.068 181.866C379.504 180.82 380.241 179.927 381.185 179.299C382.13 178.672 383.239 178.338 384.373 178.341C385.891 178.345 387.344 178.95 388.416 180.024C389.488 181.098 390.089 182.552 390.089 184.068Z" fill="#6DBCDB"/>
<path opacity="0.55" d="M388.365 181.59C388.362 182.678 388.05 183.743 387.464 184.66C386.878 185.577 386.042 186.308 385.056 186.768C384.069 187.228 382.971 187.397 381.892 187.256C380.812 187.116 379.795 186.67 378.959 185.973C378.673 185.113 378.594 184.197 378.73 183.301C378.865 182.405 379.211 181.553 379.739 180.816C380.267 180.079 380.962 179.478 381.768 179.061C382.573 178.644 383.466 178.423 384.373 178.417C385.719 178.414 387.022 178.891 388.047 179.762C388.254 180.349 388.362 180.967 388.365 181.59Z" fill="white"/>
<path opacity="0.82" d="M442.047 159.422C442.047 160.725 441.602 161.989 440.785 163.005C439.969 164.021 438.831 164.729 437.558 165.011C436.285 165.293 434.954 165.133 433.784 164.558C432.614 163.982 431.676 163.025 431.124 161.845C430.572 160.664 430.439 159.331 430.748 158.065C431.056 156.799 431.787 155.676 432.82 154.882C433.854 154.087 435.127 153.668 436.431 153.694C437.734 153.72 438.99 154.19 439.991 155.025C440.635 155.563 441.153 156.235 441.508 156.995C441.864 157.755 442.048 158.584 442.047 159.422Z" fill="#6DBCDB"/>
<path opacity="0.55" d="M440.308 156.929C440.309 158.018 439.998 159.085 439.413 160.004C438.828 160.924 437.993 161.657 437.006 162.119C436.018 162.58 434.92 162.751 433.839 162.611C432.758 162.47 431.739 162.025 430.902 161.326C430.487 160.144 430.47 158.858 430.856 157.665C431.242 156.472 432.009 155.439 433.038 154.724C434.068 154.009 435.305 153.651 436.558 153.705C437.811 153.759 439.012 154.223 439.976 155.025C440.194 155.636 440.306 156.28 440.308 156.929Z" fill="white"/>
<g opacity="0.82">
<path d="M402.368 217.782L401.173 217.343L412.817 184.673L388.895 183.464L388.955 182.21L414.586 183.494L402.368 217.782Z" fill="#6DBCDB"/>
</g>
<path d="M430.328 184.703H413.694V183.449H429.36L434.85 162.792L436.075 163.124L430.328 184.703Z" fill="#6DBCDB"/>
</g>
<defs>
<linearGradient id="paint0_linear_78_1730" x1="262.204" y1="254.305" x2="342.139" y2="548.184" gradientUnits="userSpaceOnUse">
<stop offset="0.01"/>
<stop offset="0.13" stop-opacity="0.69"/>
<stop offset="0.25" stop-opacity="0.32"/>
<stop offset="1" stop-opacity="0"/>
</linearGradient>
<linearGradient id="paint1_linear_78_1730" x1="222.011" y1="15.806" x2="251.835" y2="443.604" gradientUnits="userSpaceOnUse">
<stop offset="0.01"/>
<stop offset="0.13" stop-opacity="0.69"/>
<stop offset="0.25" stop-opacity="0.32"/>
<stop offset="1" stop-opacity="0"/>
</linearGradient>
<linearGradient id="paint2_linear_78_1730" x1="207.812" y1="131.452" x2="265.095" y2="192.768" gradientUnits="userSpaceOnUse">
<stop offset="0.01"/>
<stop offset="0.13" stop-opacity="0.69"/>
<stop offset="0.25" stop-opacity="0.32"/>
<stop offset="1" stop-opacity="0"/>
</linearGradient>
<clipPath id="clip0_78_1730">
<rect width="632" height="476" fill="white"/>
</clipPath>
</defs>
</svg>
