<svg width="35" height="36" viewBox="0 0 35 36" fill="none" xmlns="http://www.w3.org/2000/svg">
<path d="M15.1404 9.22297H18.9294C19.0434 9.03197 19.0763 8.78397 18.9873 8.54997L15.1413 3.84497V9.22297H15.1404Z" fill="#EF9645"/>
<path d="M11.9673 22.1399C11.9103 21.7909 11.8433 21.4609 11.7613 21.1669C11.1413 18.9439 10.6213 18.0029 10.8433 15.6729C11.1333 14.0889 11.1163 10.9099 15.3263 11.4049C16.4383 11.5359 18.1693 12.3319 19.1603 12.3149C19.7273 12.3049 20.1403 11.1579 20.1773 10.7759C20.2283 10.2499 19.3123 9.35588 18.9293 9.22188C18.5463 9.08788 16.9173 8.59088 16.2483 8.39788C15.2093 8.09688 15.2633 6.69288 15.1973 6.19288C15.1663 5.95788 15.2813 5.72588 15.4913 5.60188C15.7013 5.47788 15.8663 5.59388 16.0703 5.72688L16.9553 6.37488C17.4523 6.80088 16.0813 7.61488 16.4523 7.75088C16.4523 7.75088 18.2073 8.40988 18.9593 8.54688C19.3713 8.62188 20.7933 7.01788 20.8763 6.07688C20.9413 5.33688 17.4783 1.99388 15.0093 0.695883C14.1413 0.239883 13.6323 -0.0251175 13.0603 0.00188253C12.3773 0.0338825 12.1623 0.303883 11.3123 1.03188C7.46535 4.32288 3.73135 11.4399 3.18335 13.0149C0.937348 19.4759 0.586348 22.8799 0.506348 24.8029C0.457348 25.3929 0.430348 25.9799 0.430348 26.5609C0.495348 26.5609 -0.569652 31.5609 0.430348 32.5609C1.43035 33.5609 5.75635 33.5609 5.75635 33.5609C15.7563 37.5499 34.3263 36.5089 34.3263 26.3279C34.3263 14.1559 15.5133 15.7709 11.9673 22.1399Z" fill="#FFDC5D"/>
<path d="M19.7933 31.9409C16.6333 31.6089 14.1653 30.0599 14.0263 29.9709C13.5613 29.6739 13.4253 29.0579 13.7213 28.5919C14.0173 28.1259 14.6343 27.9889 15.1013 28.2839C15.1413 28.3089 19.1043 30.7759 22.9473 29.7509C25.0723 29.1849 26.8144 27.6359 28.1243 25.1499C28.3823 24.6599 28.9903 24.4739 29.4753 24.7309C29.9634 24.9879 30.1514 25.5929 29.8944 26.0819C28.3094 29.0879 26.1403 30.9749 23.4473 31.6879C22.1903 32.0199 20.9453 32.0619 19.7933 31.9409Z" fill="#EF9645"/>
</svg>
