<svg id="visual" viewBox="0 0 1440 300" width="1440" height="300" xmlns="http://www.w3.org/2000/svg" xmlns:xlink="http://www.w3.org/1999/xlink" version="1.1"><path d="M0 223L34.3 226.5C68.7 230 137.3 237 205.8 235C274.3 233 342.7 222 411.2 215.7C479.7 209.3 548.3 207.7 617 214.3C685.7 221 754.3 236 823 242.2C891.7 248.3 960.3 245.7 1028.8 238.5C1097.3 231.3 1165.7 219.7 1234.2 214.8C1302.7 210 1371.3 212 1405.7 213L1440 214L1440 301L1405.7 301C1371.3 301 1302.7 301 1234.2 301C1165.7 301 1097.3 301 1028.8 301C960.3 301 891.7 301 823 301C754.3 301 685.7 301 617 301C548.3 301 479.7 301 411.2 301C342.7 301 274.3 301 205.8 301C137.3 301 68.7 301 34.3 301L0 301Z" fill="#171C44" stroke-linecap="round" stroke-linejoin="miter"></path></svg>