<svg width="609" height="459" viewBox="0 0 609 459" fill="none" xmlns="http://www.w3.org/2000/svg">
<path opacity="0.18" d="M108.474 430.235C116.521 432.395 124.678 434.119 132.911 435.399C179.022 442.672 226.26 438.454 272.589 444.054C321.646 449.945 369.284 466.855 418.741 454.672C458.379 444.89 493.616 419.907 519.399 388.67C555.546 345.032 575.292 289.975 590.347 235.282C607.221 174.08 616.349 100.549 573.001 54.1839C538.382 17.0916 482.089 11.2368 431.396 13.2005C404.595 14.2551 377.794 16.837 350.993 15.9643C324.192 15.0915 303.463 6.29114 278.772 1.41822C239.425 -6.40027 189.168 19.928 161.894 46.0745C129.166 77.2758 110.983 120.732 80.6909 154.188C60.3265 176.625 34.3618 194.88 20.5795 221.863C13.8538 236.248 9.48273 251.621 7.63351 267.392C2.68786 300.375 2.39694 335.65 17.743 365.251C35.4164 399.361 70.7633 419.98 108.474 430.235Z" fill="#68E1FD"/>
<path d="M433.505 62.3296C433.505 62.3296 547.619 113.022 551.546 183.607C555.474 254.192 342.447 241.464 295.863 271.901C249.28 302.339 47.3807 348.595 51.2718 295.575C55.1629 242.555 103.128 224.263 103.128 224.263" stroke="white" stroke-width="1.16368" stroke-miterlimit="10"/>
<path opacity="0.18" d="M134.693 290.266L204.333 104.441C205.471 101.417 207.505 98.8115 210.162 96.9727C212.82 95.134 215.974 94.1492 219.206 94.1494H512.454C516.662 94.159 520.695 95.8376 523.667 98.8168C526.64 101.796 528.309 105.833 528.309 110.041C528.304 111.656 528.059 113.262 527.582 114.805L460.197 325.722C459.099 329.134 456.874 332.071 453.888 334.053C450.901 336.035 447.331 336.944 443.76 336.632L148.185 311.54C143.985 311.197 140.093 309.2 137.365 305.988C134.637 302.776 133.297 298.612 133.639 294.412C133.809 292.99 134.164 291.597 134.693 290.266Z" fill="#68E1FD"/>
<path d="M519.727 96.2218L452.233 307.248C451.116 310.656 448.882 313.586 445.893 315.566C442.903 317.546 439.333 318.459 435.76 318.158L347.247 310.667L140.366 292.993C138.287 292.833 136.259 292.262 134.401 291.315C132.542 290.368 130.889 289.062 129.537 287.474C128.185 285.885 127.161 284.045 126.523 282.059C125.885 280.073 125.646 277.98 125.82 275.902C125.968 274.409 126.31 272.942 126.839 271.538L143.385 227.9L173.313 147.897L196.514 86.076C197.653 83.0518 199.686 80.4467 202.344 78.608C205.001 76.7693 208.156 75.7844 211.387 75.7847H504.635C506.717 75.7847 508.779 76.1948 510.703 76.9916C512.626 77.7884 514.374 78.9562 515.847 80.4285C517.319 81.9008 518.487 83.6487 519.284 85.5723C520.08 87.496 520.49 89.5577 520.49 91.6398C520.469 93.197 520.211 94.7418 519.727 96.2218Z" fill="white"/>
<path opacity="0.18" d="M229.206 279.829L250.843 220.445H340.883L317.391 281.466L229.206 279.829Z" fill="#68E1FD"/>
<path d="M519.727 96.2222L452.233 307.249C451.116 310.656 448.882 313.587 445.892 315.566C442.903 317.546 439.333 318.46 435.76 318.158L347.247 310.667L428.887 89.0583L429.505 87.3491L520.199 88.2946C520.185 88.5611 520.185 88.8282 520.199 89.0947C520.589 91.4754 520.427 93.9137 519.727 96.2222Z" fill="#68E1FD"/>
<path opacity="0.18" d="M233.097 112.95L210.806 186.88C210.477 188.071 209.764 189.119 208.777 189.862C207.79 190.606 206.586 191.002 205.351 190.989L146.148 189.28L176.113 109.277L228.115 106.222C228.941 106.187 229.762 106.355 230.507 106.711C231.253 107.067 231.9 107.6 232.391 108.264C232.883 108.928 233.204 109.702 233.327 110.519C233.45 111.336 233.371 112.171 233.097 112.95Z" fill="#68E1FD"/>
<path d="M97.4189 168.698L120.474 103.422C120.828 102.375 121.482 101.454 122.355 100.775C123.228 100.096 124.281 99.6888 125.384 99.6041L222.551 93.8585C223.378 93.8326 224.199 94.0074 224.944 94.3679C225.689 94.7283 226.336 95.2637 226.829 95.9282C227.322 96.5928 227.647 97.3669 227.776 98.1843C227.905 99.0017 227.834 99.8382 227.57 100.622L205.278 174.589C204.945 175.78 204.232 176.83 203.247 177.578C202.262 178.327 201.06 178.733 199.823 178.735L101.855 175.789C101.038 175.742 100.243 175.499 99.5386 175.082C98.8339 174.664 98.2395 174.084 97.8051 173.39C97.3706 172.695 97.1089 171.907 97.0417 171.091C96.9745 170.274 97.1039 169.454 97.4189 168.698Z" fill="white"/>
<path d="M520.345 88.2946V89.131V90.0401L428.886 89.0946L196.514 86.7309V84.9854L429.505 87.3491L520.199 88.2946H520.345Z" fill="#68E1FD"/>
<path d="M129.239 161.861H116.802L123.347 144.951H135.748L129.239 161.861Z" fill="#68E1FD"/>
<path d="M144.548 161.861H132.111L145.421 127.459H157.858L144.548 161.861Z" fill="#68E1FD"/>
<path d="M159.894 161.861H147.458L155.567 140.915H167.967L159.894 161.861Z" fill="#68E1FD"/>
<path d="M175.204 161.861H162.767L180.295 116.55H192.732L175.204 161.861Z" fill="#68E1FD"/>
<path d="M144.548 161.861H132.111L145.421 127.459H157.858L144.548 161.861Z" fill="url(#paint0_linear_75_1394)"/>
<path d="M175.204 161.861H162.767L180.295 116.55H192.732L175.204 161.861Z" fill="url(#paint1_linear_75_1394)"/>
<path d="M190.55 161.861H178.113L200.514 103.895H212.951L190.55 161.861Z" fill="#68E1FD"/>
<path d="M477.689 141.788C479.142 136.402 478.422 130.662 475.685 125.802C472.947 120.943 468.41 117.353 463.051 115.805C457.692 114.258 451.94 114.878 447.033 117.531C442.126 120.183 438.458 124.657 436.817 129.988C435.177 135.319 435.696 141.081 438.263 146.034C440.829 150.986 445.238 154.732 450.54 156.465C455.842 158.198 461.612 157.78 466.608 155.3C471.605 152.82 475.427 148.477 477.252 143.206L477.471 142.515L477.689 141.788Z" fill="white"/>
<path d="M431.178 276.811C432.272 271.531 431.332 266.033 428.545 261.418C425.758 256.802 421.33 253.41 416.148 251.92C410.967 250.43 405.413 250.953 400.6 253.384C395.788 255.815 392.071 259.974 390.194 265.029C390.194 265.247 390.194 265.501 390.194 265.72C390.194 265.938 390.194 266.192 389.94 266.41C388.5 271.589 389.067 277.12 391.527 281.899C393.987 286.678 398.16 290.353 403.211 292.19C408.262 294.027 413.821 293.891 418.776 291.808C423.731 289.726 427.719 285.85 429.942 280.956C430.16 280.266 430.342 279.575 430.56 278.884C430.778 278.193 430.923 277.502 431.178 276.811Z" fill="white"/>
<path d="M452.924 202.081C452.924 196.419 450.675 190.99 446.672 186.987C442.669 182.983 437.239 180.734 431.578 180.734C425.916 180.734 420.487 182.983 416.484 186.987C412.48 190.99 410.231 196.419 410.231 202.081V203.572C410.231 209.233 412.48 214.663 416.484 218.666C420.487 222.669 425.916 224.918 431.578 224.918C437.239 224.918 442.669 222.669 446.672 218.666C450.675 214.663 452.924 209.233 452.924 203.572V202.081Z" fill="white"/>
<path d="M456.452 135.933L461.47 119.823C460.053 119.387 458.587 119.13 457.106 119.059C453.403 118.92 449.756 120.001 446.727 122.137C443.699 124.272 441.455 127.343 440.342 130.878C439.906 132.295 439.649 133.761 439.578 135.242C439.532 136.719 439.666 138.197 439.978 139.642C440.62 142.53 442.027 145.193 444.051 147.351C446.046 149.547 448.591 151.169 451.423 152.052C454.256 152.934 457.272 153.044 460.161 152.37C461.585 152.036 462.964 151.536 464.27 150.879C465.583 150.184 466.805 149.329 467.907 148.333C470.054 146.346 471.656 143.842 472.561 141.06L456.452 135.933Z" fill="#68E1FD"/>
<path d="M431.869 202.772V185.898C428.917 185.921 426.023 186.71 423.468 188.189C422.134 188.908 420.91 189.815 419.832 190.88C417.728 192.969 416.214 195.577 415.443 198.439C414.673 201.302 414.674 204.317 415.446 207.18C416.218 210.042 417.733 212.649 419.838 214.736C421.943 216.823 424.564 218.316 427.432 219.063C430.287 219.863 433.306 219.863 436.16 219.063C437.582 218.696 438.951 218.146 440.233 217.427L431.869 202.772Z" fill="#68E1FD"/>
<path d="M410.304 272.302L415.541 256.265C412.72 255.365 409.715 255.202 406.813 255.792C403.177 256.564 399.897 258.516 397.484 261.343C395.071 264.171 393.659 267.717 393.467 271.429C393.388 272.893 393.51 274.362 393.831 275.793C394.129 277.233 394.618 278.628 395.286 279.938C396.267 281.906 397.626 283.66 399.286 285.101C400.946 286.543 402.873 287.643 404.959 288.339L410.195 272.265L410.304 272.302Z" fill="#68E1FD"/>
<path d="M196.26 208.008C196.079 208.695 195.684 209.306 195.132 209.754C194.343 210.198 193.455 210.435 192.55 210.445C191.59 210.513 190.664 210.826 189.859 211.354C189.751 211.568 189.694 211.805 189.694 212.045C189.694 212.285 189.751 212.522 189.859 212.736L190.914 218.627C191.059 219.089 191.059 219.584 190.914 220.045C190.768 220.288 190.573 220.497 190.341 220.66C190.109 220.823 189.846 220.935 189.568 220.991C187.459 221.827 184.841 222.554 183.168 220.991C182.366 220.1 181.824 219.005 181.604 217.827C179.419 211.223 178.314 204.31 178.332 197.353C178.274 195.25 178.674 193.16 179.502 191.226C180.331 189.293 181.569 187.562 183.132 186.153C186.144 184.038 189.861 183.178 193.496 183.753C194.306 183.849 195.08 184.141 195.752 184.603C196.423 185.066 196.972 185.685 197.351 186.407C197.823 187.462 197.351 188.48 197.351 189.608C197.331 191.262 197.44 192.916 197.678 194.553C197.833 195.314 198.027 196.067 198.26 196.808C198.541 197.433 198.737 198.094 198.841 198.772C198.783 200.05 198.422 201.297 197.787 202.408C197.208 203.732 196.758 205.108 196.441 206.517C196.43 207.019 196.369 207.519 196.26 208.008Z" fill="#FDB9A9"/>
<path d="M200.987 251.646C200.987 251.646 208.26 259.428 214.369 259.428C220.478 259.428 247.425 233.973 247.425 233.973C248.873 233.286 250.167 232.313 251.229 231.113C252.291 229.913 253.1 228.511 253.607 226.991C253.862 225.936 253.789 224.845 253.971 223.791C254.444 221.662 255.403 219.67 256.771 217.972C257.001 217.74 257.175 217.46 257.282 217.151C257.389 216.843 257.426 216.515 257.389 216.19C257.171 215.39 256.225 215.136 255.425 214.99C252.902 214.252 250.195 214.472 247.825 215.608C246.149 216.98 244.983 218.876 244.516 220.99C243.794 219.948 242.782 219.139 241.607 218.663C241.252 218.869 240.981 219.193 240.841 219.579C240.701 219.964 240.702 220.387 240.843 220.772C241.114 221.542 241.43 222.294 241.788 223.027C242.033 224.405 241.875 225.823 241.333 227.114C240.791 228.404 239.889 229.51 238.734 230.3C237.325 231.391 235.829 232.364 234.261 233.209L217.751 242.846C216.078 243.828 214.115 244.846 212.296 243.937C211.46 243.5 210.878 242.664 209.969 242.264C209.263 242.11 208.53 242.143 207.841 242.36C207.152 242.577 206.532 242.97 206.042 243.5C203.841 245.86 202.124 248.627 200.987 251.646Z" fill="#FDB9A9"/>
<path d="M135.203 359.36C134.939 361.557 134.2 363.671 133.039 365.554C131.877 367.438 130.32 369.047 128.475 370.269C121.711 373.433 113.02 374.233 105.747 375.797C101.347 376.779 96.9465 377.76 92.6191 378.924C88.9826 379.906 85.0915 379.797 82.6187 382.997C81.1277 384.888 80.1459 387.579 77.8185 388.124C76.9843 388.255 76.1301 388.139 75.3611 387.79C74.5922 387.441 73.9421 386.875 73.4911 386.161C72.612 384.694 72.1121 383.032 72.0365 381.324C71.9279 380.686 71.9279 380.035 72.0365 379.397C72.2292 378.72 72.578 378.097 73.0547 377.579C75.5504 375.305 78.5759 373.692 81.855 372.888C84.6754 371.896 87.4116 370.68 90.0372 369.251C92.1898 368.191 94.4282 367.315 96.7284 366.633L110.002 361.796C113.129 360.669 117.82 360.232 119.02 356.669C119.471 354.922 119.703 353.127 119.711 351.323C119.967 347.748 121.064 344.285 122.911 341.214C123.136 340.698 123.501 340.257 123.966 339.941C124.513 339.645 125.126 339.495 125.748 339.504C127.443 339.303 129.162 339.502 130.766 340.086C131.809 340.591 132.741 341.298 133.509 342.166C134.276 343.033 134.865 344.045 135.239 345.141C135.939 347.348 136.21 349.669 136.039 351.978C135.973 354.458 135.694 356.928 135.203 359.36Z" fill="#FDB9A9"/>
<path d="M75.4548 376.16C75.2366 377.106 74.5093 377.87 74.2547 378.815C74.1091 379.584 74.1091 380.374 74.2547 381.142L74.9456 384.779C74.9619 385.161 75.0582 385.536 75.2285 385.878C75.3988 386.22 75.6393 386.523 75.9342 386.767C76.2291 387.01 76.5719 387.189 76.9404 387.291C77.3089 387.394 77.6948 387.417 78.073 387.361C78.2249 387.372 78.3723 387.417 78.5044 387.492C78.6366 387.568 78.7501 387.672 78.8367 387.797C78.9089 387.997 78.9089 388.216 78.8367 388.415L77.8185 393.034C77.4001 394.969 76.7276 396.839 75.8184 398.598C75.5324 398.673 75.2317 398.673 74.9456 398.598C72.6183 398.598 71.7091 392.707 70.8728 390.488C70.1818 388.241 69.9955 385.87 70.3273 383.543C70.3273 382.27 70.5455 381.033 70.7273 379.906C70.7399 378.663 70.9738 377.431 71.4182 376.27C71.5643 375.984 71.7894 375.747 72.0666 375.585C72.3438 375.424 72.6616 375.346 72.9819 375.36C73.7092 375.397 75.7093 375.106 75.4548 376.16Z" fill="#68E1FD"/>
<path d="M174.041 360.051C175.309 361.899 176.151 364.007 176.503 366.221C176.855 368.435 176.71 370.7 176.077 372.851C172.986 379.615 166.877 385.906 162.404 391.797C159.64 395.434 156.949 399.07 154.367 402.707C152.258 405.798 149.24 408.234 149.421 412.271C149.421 414.671 150.512 417.362 149.094 419.289C148.539 419.928 147.811 420.392 146.998 420.625C146.184 420.857 145.321 420.848 144.512 420.598C142.901 420.054 141.451 419.117 140.294 417.871C139.815 417.443 139.409 416.94 139.094 416.38C138.798 415.731 138.661 415.02 138.694 414.307C139.097 410.957 140.348 407.765 142.33 405.034C143.768 402.413 144.985 399.676 145.967 396.852C146.911 394.631 148.055 392.501 149.385 390.488L156.331 378.197C158.004 375.324 161.313 371.942 159.967 368.451C159.179 366.83 158.19 365.315 157.022 363.942C154.909 361.055 153.491 357.72 152.876 354.196C152.767 353.644 152.767 353.075 152.876 352.523C153.095 351.944 153.458 351.431 153.931 351.032C155.113 349.782 156.57 348.824 158.185 348.232C159.301 347.932 160.466 347.86 161.61 348.023C162.753 348.185 163.852 348.578 164.84 349.177C166.814 350.383 168.531 351.964 169.895 353.832C171.451 355.783 172.838 357.864 174.041 360.051Z" fill="#FDB9A9"/>
<path d="M139.494 411.58C139.93 412.453 139.894 413.507 140.33 414.38C140.736 415.047 141.282 415.618 141.93 416.053L144.73 418.344C145.057 418.628 145.424 418.861 145.821 419.035C146.342 419.12 146.874 419.099 147.386 418.974C147.898 418.849 148.38 418.623 148.803 418.307C148.883 418.21 148.989 418.136 149.109 418.094C149.228 418.052 149.357 418.044 149.48 418.07C149.604 418.096 149.719 418.156 149.811 418.243C149.903 418.329 149.969 418.44 150.003 418.562L152.221 422.78C153.175 424.504 153.885 426.352 154.331 428.271C154.199 428.548 153.999 428.786 153.749 428.962C151.93 430.453 147.458 426.562 145.421 425.326C143.418 424.144 141.694 422.544 140.366 420.635C139.639 419.617 138.948 418.562 138.257 417.544C137.511 416.616 136.921 415.571 136.512 414.453C136.438 414.128 136.456 413.788 136.566 413.473C136.675 413.158 136.87 412.88 137.13 412.671C137.603 412.125 138.948 410.634 139.494 411.58Z" fill="#68E1FD"/>
<path d="M210.114 242.446C209.972 242.925 209.679 243.346 209.278 243.646C206.514 246.301 203.714 248.882 200.987 251.537C200.107 252.379 199.158 253.145 198.15 253.828C197.241 254.374 196.259 254.737 195.35 255.283C195.042 255.477 194.751 255.696 194.478 255.937C192.55 257.707 191.057 259.897 190.114 262.338C189.423 263.828 188.768 265.392 188.223 266.956C186.766 271.019 185.683 275.206 184.986 279.465C180.804 303.757 186.259 328.522 189.095 352.887C189.459 355.578 189.714 358.269 189.932 360.96C189.932 362.087 190.15 363.251 190.223 364.414C190.412 365.445 190.245 366.509 189.75 367.433C189.168 368.115 188.396 368.609 187.532 368.851C175.24 373.833 161.385 377.76 148.912 373.324C140.839 370.451 134.366 364.414 127.311 359.541C120.256 354.668 111.456 350.886 103.201 353.287C103.297 347.338 105.501 341.617 109.42 337.14C110.759 335.371 112.23 333.706 113.82 332.158L117.093 328.922C128.002 318.267 137.348 309.067 143.203 294.121C145.566 288.048 146.039 280.92 150.039 275.611C153.676 271.065 156.476 270.592 157.312 264.483C158.407 256.846 160.146 249.316 162.513 241.973C164.696 235.317 168.14 229.144 172.658 223.791C174.599 221.31 176.962 219.192 179.641 217.536C182.344 215.865 185.553 215.207 188.695 215.681C190.251 215.942 191.712 216.607 192.931 217.608C194.149 218.61 195.084 219.914 195.641 221.39C198.441 229.645 205.714 233.245 209.678 241.064C209.985 241.457 210.14 241.948 210.114 242.446Z" fill="#68E1FD"/>
<path d="M199.532 183.389C199.24 184.665 198.635 185.848 197.772 186.832C196.908 187.816 195.814 188.57 194.586 189.026C188.95 191.244 181.168 190.335 182.731 198.371C184.249 204.264 183.763 210.495 181.35 216.081C179.784 218.132 178.691 220.504 178.149 223.027C178.185 224.142 178.331 225.25 178.586 226.336C179.394 231.038 178.322 235.868 175.601 239.787C172.879 243.705 168.727 246.397 164.04 247.282C163.344 247.421 162.639 247.506 161.931 247.537C159.803 247.382 157.67 247.744 155.712 248.592C153.944 250.077 152.674 252.07 152.076 254.301C151.318 256.648 149.889 258.721 147.966 260.265C144.075 262.883 138.875 261.283 134.511 259.501C131.212 258.328 128.109 256.661 125.311 254.555C123.916 253.493 122.756 252.152 121.905 250.619C121.053 249.085 120.529 247.392 120.365 245.646C120.692 243.376 120.655 241.068 120.256 238.809C119.48 237.539 118.618 236.324 117.674 235.173C116.846 233.2 116.516 231.053 116.713 228.923C116.91 226.792 117.627 224.742 118.802 222.954C119.199 222.324 119.459 221.618 119.565 220.881C119.508 220.167 119.336 219.468 119.056 218.809C118.645 216.379 119.027 213.882 120.148 211.687C121.268 209.493 123.066 207.718 125.275 206.626C129.747 204.575 134.465 203.108 139.311 202.262C142.891 201.352 146.206 199.614 148.992 197.189C151.777 194.763 153.954 191.718 155.348 188.298C158.149 182.334 160.512 175.825 166.913 172.843C171.799 170.968 177.066 170.302 182.265 170.904C187.464 171.506 192.44 173.356 196.768 176.298C197.911 177.044 198.791 178.129 199.287 179.4C199.782 180.672 199.868 182.066 199.532 183.389Z" fill="#473F47"/>
<path d="M198.15 253.937C197.241 254.483 196.259 254.846 195.35 255.392C195.036 255.577 194.744 255.797 194.478 256.046C191.307 258.943 189.121 262.757 188.223 266.956C186.767 271.034 185.672 275.232 184.95 279.502C183.304 290.564 182.974 301.782 183.968 312.921C184.486 316.976 184.364 321.087 183.604 325.104C178.775 319.41 175.705 312.436 174.768 305.03C174.259 300.994 174.404 296.848 173.568 292.848C172.913 289.975 171.749 287.211 171.277 284.302C171.294 284.157 171.294 284.011 171.277 283.866C170.513 278.629 172.549 277.865 175.495 274.847C178.366 271.721 180.503 267.994 181.75 263.938C184.174 256.665 186.708 249.501 189.35 242.446C188.805 244.373 195.896 250.337 198.15 253.937Z" fill="url(#paint2_linear_75_1394)"/>
<path opacity="0.38" d="M189.968 361.069C177.385 364.895 163.902 364.551 151.53 360.087C146.865 358.515 142.554 356.044 138.839 352.814C137.421 351.505 136.148 350.05 134.693 348.814C132.477 346.999 130.031 345.483 127.42 344.305C121.784 341.614 115.892 339.904 110.183 337.577L109.565 337.322C110.915 335.562 112.385 333.897 113.965 332.34L117.274 329.104H118.002C121.647 329.6 125.207 330.591 128.584 332.05C133.979 335.141 139.079 338.719 143.821 342.741C148.59 345.946 153.627 348.732 158.876 351.069C162.184 352.768 165.689 354.051 169.313 354.887C172.928 355.384 176.59 355.458 180.222 355.105C183.328 355.177 186.399 354.438 189.132 352.959C189.459 355.687 189.714 358.342 189.968 361.069Z" fill="white"/>
<path opacity="0.18" d="M254.953 202.844L276.59 143.424H366.666L343.138 204.444L254.953 202.844Z" fill="#68E1FD"/>
<path d="M375.466 31.1284L412.741 48.3655L406.449 70.33L375.466 31.1284Z" fill="#68E1FD"/>
<path d="M375.466 31.1284H433.541L415.868 41.9288L375.466 31.1284Z" fill="#68E1FD"/>
<path d="M422.595 58.0749L412.741 48.3655L375.466 31.1284L415.868 41.9288L422.595 58.0749Z" fill="#68E1FD"/>
<path d="M422.595 58.0749L412.741 48.3655L375.466 31.1284L415.868 41.9288L422.595 58.0749Z" fill="url(#paint3_linear_75_1394)"/>
<path d="M422.595 58.0749L412.741 48.3655L375.466 31.1284L422.595 58.0749Z" fill="#68E1FD"/>
<defs>
<linearGradient id="paint0_linear_75_1394" x1="136.844" y1="90.842" x2="231.474" y2="310.314" gradientUnits="userSpaceOnUse">
<stop offset="0.01"/>
<stop offset="0.08" stop-opacity="0.69"/>
<stop offset="0.21" stop-opacity="0.32"/>
<stop offset="1" stop-opacity="0"/>
</linearGradient>
<linearGradient id="paint1_linear_75_1394" x1="168.364" y1="77.2644" x2="262.993" y2="296.705" gradientUnits="userSpaceOnUse">
<stop offset="0.01"/>
<stop offset="0.08" stop-opacity="0.69"/>
<stop offset="0.21" stop-opacity="0.32"/>
<stop offset="1" stop-opacity="0"/>
</linearGradient>
<linearGradient id="paint2_linear_75_1394" x1="117.056" y1="268.52" x2="274.808" y2="303.357" gradientUnits="userSpaceOnUse">
<stop offset="0.01"/>
<stop offset="0.13" stop-opacity="0.69"/>
<stop offset="0.25" stop-opacity="0.32"/>
<stop offset="1" stop-opacity="0"/>
</linearGradient>
<linearGradient id="paint3_linear_75_1394" x1="394.085" y1="7.70931" x2="409.395" y2="122.223" gradientUnits="userSpaceOnUse">
<stop offset="0.01"/>
<stop offset="0.08" stop-opacity="0.69"/>
<stop offset="0.21" stop-opacity="0.32"/>
<stop offset="1" stop-opacity="0"/>
</linearGradient>
</defs>
</svg>
