<svg id="Layer_1" data-name="Layer 1" xmlns="http://www.w3.org/2000/svg" viewBox="0 0 500 500" width="500" height="500" class="illustration"><defs><style>.cls-1{fill:#f9bb0d;}.cls-2{fill:#ffd44d;}.cls-3{fill:#f0457d;}.cls-4{fill:#db2868;}.cls-5{fill:#24285b;}.cls-6{fill:#171c44;}</style></defs><title>Learning</title><path class="cls-1" d="M345.63,80.24c-17.81-16.93-40.3-28.48-63.47-36.2l-1-.29a123.84,123.84,0,0,0-64.07,0L216,44c-23.16,7.72-45.66,19.27-63.47,36.2-53,50.39-44.39,141.85,7.23,190.11,14.48,13.54,20.83,31,25.27,50.28,1.33,5.8,9,35.33,6.33,35.33H306.8c-2.68,0,5-29.53,6.33-35.33,4.44-19.26,10.79-36.74,25.27-50.28C390,222.09,398.62,130.63,345.63,80.24Z"></path><path class="cls-2" d="M228.33,320.63c-4.43-19.26-10.79-36.74-25.27-50.28-51.61-48.26-60.22-139.72-7.22-190.11,17.8-16.93,40.3-28.48,63.46-36.2l1-.29c3.44-.92,6.91-1.63,10.39-2.25a123.83,123.83,0,0,0-53.68,2.25L216,44c-23.16,7.72-45.66,19.27-63.47,36.2-53,50.39-44.39,141.85,7.23,190.11,14.48,13.54,20.83,31,25.27,50.28,1.33,5.8,9,35.33,6.33,35.33h43.3C237.35,356,229.67,326.43,228.33,320.63Z"></path><path class="cls-3" d="M318.28,356.18c0,6.44-3.48,11.65-7.77,11.65H183.61c-4.3,0-7.77-5.21-7.77-11.65h0c0-6.44,3.47-11.65,7.77-11.65h126.9c4.29,0,7.77,5.21,7.77,11.65Z"></path><path class="cls-4" d="M318.28,379.49c0,6.43-3.48,11.65-7.77,11.65H183.61c-4.3,0-7.77-5.22-7.77-11.65h0c0-6.44,3.47-11.66,7.77-11.66h126.9c4.29,0,7.77,5.22,7.77,11.66Z"></path><path class="cls-3" d="M318.28,403.45c0,6.79-3.48,12.3-7.77,12.3H183.61c-4.3,0-7.77-5.51-7.77-12.3h0c0-6.8,3.47-12.31,7.77-12.31h126.9c4.29,0,7.77,5.51,7.77,12.31Z"></path><path class="cls-4" d="M247.06,461.07a45.32,45.32,0,0,0,45.32-45.32H201.73A45.33,45.33,0,0,0,247.06,461.07Z"></path><path class="cls-5" d="M315,197.81h0a7.75,7.75,0,0,0-5.2,7.32V215.2h10.41V205.13a7.75,7.75,0,0,0-5.21-7.32Z"></path><path class="cls-5" d="M203.27,211.56c0,4.39,20.51,8,45.82,8s45.81-3.57,45.81-8V173.93H203.27Z"></path><rect class="cls-5" x="312.92" y="169.55" width="4.2" height="30.22"></rect><polygon class="cls-6" points="210.4 184.66 252.51 204.99 294.9 198.81 294.9 182.41 210.4 184.66"></polygon><path class="cls-5" d="M248.4,196.08,168.28,171.8a2.36,2.36,0,0,1,0-4.51L248.4,143a2.29,2.29,0,0,1,1.37,0l80.12,24.27a2.36,2.36,0,0,1,0,4.51l-80.12,24.28A2.46,2.46,0,0,1,248.4,196.08Z"></path></svg>