<svg id="Layer_1" data-name="Layer 1" xmlns="http://www.w3.org/2000/svg" viewBox="0 0 500 500" width="500" height="500" class="illustration"><defs><style>.cls-1{fill:#ffd44d;}.cls-2{fill:#f9bb0d;}</style></defs><title>Customer reviews</title><path class="cls-1" d="M263.48,109l36.84,74.64a14.43,14.43,0,0,0,10.89,7.92l82.37,12a14.48,14.48,0,0,1,8,24.69L342,286.28a14.45,14.45,0,0,0-4.16,12.81l14.07,82a14.47,14.47,0,0,1-21,15.25l-73.68-38.73a14.43,14.43,0,0,0-13.46,0l-73.68,38.73a14.47,14.47,0,0,1-21-15.25l14.07-82A14.45,14.45,0,0,0,159,286.28l-59.61-58.1a14.48,14.48,0,0,1,8-24.69l82.37-12a14.43,14.43,0,0,0,10.89-7.92L237.52,109A14.48,14.48,0,0,1,263.48,109Z"></path><path class="cls-2" d="M401.6,228.22a14.47,14.47,0,0,0-8-24.69l-37.48-5.45-41.4,40.36a14.47,14.47,0,0,0-4.16,12.81l14.07,82a14.48,14.48,0,0,1-21,15.26l-73.67-38.74a14.53,14.53,0,0,0-13.48,0l-60.6,31.86-6.77,39.49a14.47,14.47,0,0,0,21,15.26l73.68-38.73a14.43,14.43,0,0,1,13.46,0l73.68,38.73a14.47,14.47,0,0,0,21-15.26l-14.07-82A14.45,14.45,0,0,1,342,286.32Z"></path><path class="cls-1" d="M367.69,73.46l9,18.32a3.56,3.56,0,0,0,2.67,1.94l20.22,2.94a3.54,3.54,0,0,1,2,6L387,117a3.53,3.53,0,0,0-1,3.14l3.45,20.13a3.55,3.55,0,0,1-5.15,3.75l-18.08-9.51a3.58,3.58,0,0,0-3.31,0L344.78,144a3.56,3.56,0,0,1-5.16-3.75l3.46-20.13a3.57,3.57,0,0,0-1-3.14l-14.62-14.26a3.54,3.54,0,0,1,2-6l20.21-2.94a3.52,3.52,0,0,0,2.67-1.94l9-18.32A3.55,3.55,0,0,1,367.69,73.46Z"></path><path class="cls-2" d="M401.58,102.72a3.54,3.54,0,0,0-2-6l-9.2-1.34-10.16,9.9a3.54,3.54,0,0,0-1,3.15l3.45,20.13a3.55,3.55,0,0,1-5.15,3.74l-18.08-9.5a3.53,3.53,0,0,0-3.31,0l-14.87,7.81-1.66,9.69a3.56,3.56,0,0,0,5.16,3.75l18.07-9.51a3.58,3.58,0,0,1,3.31,0L384.24,144a3.55,3.55,0,0,0,5.15-3.75l-3.45-20.13a3.53,3.53,0,0,1,1-3.14Z"></path><path class="cls-1" d="M80.32,300.07l9,18.32A3.56,3.56,0,0,0,92,320.33l20.22,2.94a3.55,3.55,0,0,1,2,6.06L99.59,343.58a3.54,3.54,0,0,0-1,3.15L102,366.86a3.55,3.55,0,0,1-5.15,3.74l-18.08-9.5a3.53,3.53,0,0,0-3.31,0L57.4,370.6a3.55,3.55,0,0,1-5.15-3.74l3.45-20.13a3.54,3.54,0,0,0-1-3.15L40.06,329.33a3.55,3.55,0,0,1,2-6.06l20.21-2.94a3.56,3.56,0,0,0,2.67-1.94l9-18.32A3.55,3.55,0,0,1,80.32,300.07Z"></path><path class="cls-2" d="M114.21,329.34a3.55,3.55,0,0,0-2-6.06l-9.2-1.34-10.16,9.91a3.53,3.53,0,0,0-1,3.14l3.45,20.13a3.55,3.55,0,0,1-5.15,3.74l-18.08-9.5a3.53,3.53,0,0,0-3.31,0l-14.87,7.82-1.66,9.69a3.55,3.55,0,0,0,5.15,3.74l18.08-9.5a3.53,3.53,0,0,1,3.31,0l18.08,9.5a3.55,3.55,0,0,0,5.15-3.74l-3.45-20.13a3.54,3.54,0,0,1,1-3.15Z"></path><path class="cls-1" d="M426,300.08l9,18.31a3.57,3.57,0,0,0,2.67,1.95l20.22,2.93a3.56,3.56,0,0,1,2,6.06l-14.63,14.26a3.53,3.53,0,0,0-1,3.14l3.45,20.13a3.55,3.55,0,0,1-5.15,3.75l-18.08-9.51a3.58,3.58,0,0,0-3.31,0l-18.07,9.51a3.56,3.56,0,0,1-5.16-3.75l3.46-20.13a3.56,3.56,0,0,0-1-3.14l-14.62-14.26a3.55,3.55,0,0,1,2-6.06l20.21-2.93a3.54,3.54,0,0,0,2.67-1.95l9-18.31A3.55,3.55,0,0,1,426,300.08Z"></path><path class="cls-2" d="M459.87,329.34a3.56,3.56,0,0,0-2-6.06L448.7,322l-10.16,9.9a3.53,3.53,0,0,0-1,3.14L441,355.12a3.55,3.55,0,0,1-5.15,3.75l-18.08-9.51a3.56,3.56,0,0,0-3.3,0l-14.87,7.82-1.67,9.69a3.55,3.55,0,0,0,5.16,3.74l18.07-9.5a3.58,3.58,0,0,1,3.31,0l18.08,9.5a3.55,3.55,0,0,0,5.15-3.74l-3.45-20.13a3.53,3.53,0,0,1,1-3.14Z"></path><path class="cls-1" d="M139.68,73.46l9,18.31a3.54,3.54,0,0,0,2.67,2l20.21,2.93a3.55,3.55,0,0,1,2,6.06L159,117a3.56,3.56,0,0,0-1,3.14l3.46,20.13a3.55,3.55,0,0,1-5.16,3.74l-18.07-9.5a3.58,3.58,0,0,0-3.31,0L116.76,144a3.55,3.55,0,0,1-5.15-3.74l3.45-20.13a3.53,3.53,0,0,0-1-3.14L99.42,102.71a3.55,3.55,0,0,1,2-6.06l20.22-2.93a3.57,3.57,0,0,0,2.67-2l9-18.31A3.55,3.55,0,0,1,139.68,73.46Z"></path><path class="cls-2" d="M173.57,102.72a3.55,3.55,0,0,0-2-6.06l-9.19-1.33-10.16,9.9a3.53,3.53,0,0,0-1,3.14l3.45,20.13a3.55,3.55,0,0,1-5.15,3.75l-18.08-9.51a3.58,3.58,0,0,0-3.31,0l-14.87,7.82-1.66,9.69a3.55,3.55,0,0,0,5.15,3.74l18.08-9.5a3.58,3.58,0,0,1,3.31,0l18.07,9.5a3.55,3.55,0,0,0,5.16-3.74l-3.45-20.13a3.53,3.53,0,0,1,1-3.14Z"></path></svg>