<svg id="Layer_1" data-name="Layer 1" xmlns="http://www.w3.org/2000/svg" viewBox="0 0 500 500" width="500" height="500" class="illustration"><defs><style>.cls-1{fill:#f2f2f2;}.cls-2{fill:#c3c7c9;opacity:0.26;}.cls-3{fill:#24285b;}.cls-4{fill:#fff;}.cls-5{fill:none;stroke:#c4c4c4;stroke-linecap:round;stroke-linejoin:round;stroke-width:9px;}.cls-6{fill:#c4c4c4;}.cls-7{fill:#ffd44d;}.cls-8{fill:#f9bb0d;}.cls-9{fill:#171c44;}</style></defs><title>Learning</title><path class="cls-1" d="M459.14,145.14V404.21a14.26,14.26,0,0,1-14.26,14.26H55.67A14.27,14.27,0,0,1,41.4,404.21V145.14Z"></path><path class="cls-2" d="M41.4,145.14v33.09H437.18V418.47h7.7a14.26,14.26,0,0,0,14.26-14.26V145.14Z"></path><path class="cls-3" d="M459.14,95.79v63.1H41.4V95.79A14.27,14.27,0,0,1,55.67,81.53H444.88A14.26,14.26,0,0,1,459.14,95.79Z"></path><circle class="cls-4" cx="132.51" cy="117.57" r="6.94"></circle><circle class="cls-4" cx="100.89" cy="117.57" r="6.94"></circle><circle class="cls-4" cx="69.28" cy="117.57" r="6.94"></circle><polyline class="cls-5" points="127.15 222.58 95.6 254.48 127.15 286.38"></polyline><polyline class="cls-5" points="191.15 222.58 222.71 254.48 191.15 286.38"></polyline><line class="cls-5" x1="150.02" y1="286.39" x2="166.94" y2="222.58"></line><path class="cls-6" d="M288,248.66H264.25a4.5,4.5,0,0,1,0-9H288a4.5,4.5,0,0,1,0,9Z"></path><path class="cls-6" d="M408.12,248.66h-83a4.5,4.5,0,0,1,0-9h83a4.5,4.5,0,0,1,0,9Z"></path><path class="cls-6" d="M408.12,285.94H264.25a4.5,4.5,0,0,1,0-9H408.12a4.5,4.5,0,0,1,0,9Z"></path><path class="cls-6" d="M408.12,322.08H264.25a4.5,4.5,0,0,1,0-9H408.12a4.5,4.5,0,0,1,0,9Z"></path><path class="cls-6" d="M408.12,323.27,97.85,322.08a4.5,4.5,0,1,1,0-9l310.27,1.19a4.5,4.5,0,0,1,0,9Z"></path><path class="cls-6" d="M408.12,359.41,97.85,358.22a4.5,4.5,0,0,1,0-9l310.27,1.19a4.5,4.5,0,0,1,0,9Z"></path><circle class="cls-7" cx="412.61" cy="124.05" r="73.38"></circle><path class="cls-8" d="M412.16,50.67A73.35,73.35,0,0,1,374.86,187a73.37,73.37,0,1,0,37.3-136.28Z"></path><path class="cls-3" d="M461.73,136.87h0a5.79,5.79,0,0,0-3.88,5.46v7.5h7.76v-7.5a5.79,5.79,0,0,0-3.88-5.46Z"></path><path class="cls-3" d="M378.49,147.12c0,3.27,15.28,5.92,34.13,5.92s34.12-2.65,34.12-5.92v-28H378.49Z"></path><rect class="cls-3" x="460.17" y="115.82" width="3.13" height="22.51"></rect><polygon class="cls-9" points="383.8 127.08 415.17 142.22 446.74 137.62 446.74 125.4 383.8 127.08"></polygon><path class="cls-3" d="M412.11,135.59,352.43,117.5a1.76,1.76,0,0,1,0-3.36l59.68-18.08a1.77,1.77,0,0,1,1,0l59.68,18.08a1.76,1.76,0,0,1,0,3.36l-59.68,18.09A1.77,1.77,0,0,1,412.11,135.59Z"></path></svg>