<svg id="Layer_1" data-name="Layer 1" xmlns="http://www.w3.org/2000/svg" viewBox="0 0 400 300" width="406" height="306" class="illustration styles_illustrationTablet__1DWOa"><title>#2 problem solve</title><path d="M264.78,118.27s-3.84,17.51-24.17,19.49-48.75-45.52-48.75-45.52,24.53,2.49,33.47,14.49S243,124.33,257,115Z" fill="#68e1fd"></path><path d="M264.78,118.27s-3.84,17.51-24.17,19.49-48.75-45.52-48.75-45.52,24.53,2.49,33.47,14.49S243,124.33,257,115Z" fill="#fff" opacity="0.2"></path><ellipse cx="205.66" cy="258.99" rx="100.75" ry="13.95" fill="#e6e6e6" opacity="0.45"></ellipse><path d="M190.59,249.22s-1.19,4,1.47,6.33,1.36,5.68-1.73,4.51-7.27-9.33-7.27-9.33l3.23-4Z" fill="#68e1fd"></path><path d="M226.33,246.83s-.67,4.11,2.27,6.09,2.08,5.45-1.14,4.69-8.4-8.32-8.4-8.32l2.68-4.35Z" fill="#68e1fd"></path><path d="M168.49,61.47s-.39,7.7-2.38,12.59A3.88,3.88,0,0,1,161,76.18c-2.44-1-5.45-3.15-5.74-7.3l-1.36-7A6.92,6.92,0,0,1,158,55C162.72,52.48,169,56.79,168.49,61.47Z" fill="#f4a28c"></path><polygon points="154.33 67.85 157.85 88.84 172.09 89.5 163.81 73.1 154.33 67.85" fill="#f4a28c"></polygon><path d="M166.54,61.52a30.58,30.58,0,0,1-7-1.51,6.42,6.42,0,0,1-1,7,5.12,5.12,0,0,1-3.13,1.82,2.74,2.74,0,0,1-3-3.17l1.09-7.25A7.87,7.87,0,0,1,158.45,52a27.58,27.58,0,0,1,3.5-1.15c3-.74,6.86,1.72,9.66.16a1.86,1.86,0,0,1,2.75,1.61c0,3-1.15,7.68-5.42,8.75A7.15,7.15,0,0,1,166.54,61.52Z" fill="#24285b"></path><path d="M159.46,66.88s.35-2.94-1.89-3-2.77,4.17.18,5Z" fill="#f4a28c"></path><path d="M168,66.31l1.72,3.24a1.23,1.23,0,0,1-1,1.81l-3,.15Z" fill="#f4a28c"></path><path d="M165,75.56a9.43,9.43,0,0,1-4.93-1s.41,5.52,7.31,5.74Z" fill="#ce8172" opacity="0.31"></path><path d="M221,180.17l10.43,16.24a33.23,33.23,0,0,1,3.36,29.08l-7.55,21.27-7.83-1.7,2.2-21.16a19.67,19.67,0,0,0-7-17.15L198.75,193.5l12-13.33Z" fill="#24285b"></path><path d="M131.78,107.78a21.55,21.55,0,0,1,22.11-20.66c14.4.35,35.63,2.22,48.94,9.61,21.66,12,18,80.74,18,80.74L174.36,188.4S130.46,145,131.78,107.78Z" fill="#68e1fd"></path><path d="M152.41,99.61s19.68,8.6,28,43c8.22,34.08,39.07,13.8,39.07,13.8L219,178.12,174.36,188.4l-9.68-10.65S135.43,145.54,152.41,99.61Z" opacity="0.08"></path><path d="M174.36,188.4,185.23,205a27,27,0,0,1,3.49,21.79l-5.61,20.82,8.75,2,11.81-21.49a33.52,33.52,0,0,0,1.61-29l-2.51-6.07,14-14.65Z" fill="#24285b"></path><path d="M251.55,155.29l16.56-13.5-16.88-20.71a14.67,14.67,0,1,0-11.76-14.43L222.58,85.93l-55.85,45.54,45.53,55.85,16.56-13.5a14.66,14.66,0,0,1,22.73-18.53Z" fill="#ffd200"></path><path d="M104.43,154.14,94,138.14l-20,13.09A13.13,13.13,0,1,0,60,160.36l-20,13.1,35.33,54,54-35.33-10.47-16a13.13,13.13,0,1,1-14.38-22Z" fill="#e6e6e6"></path><path d="M347.83,145.31a13.24,13.24,0,1,0-14.78-8l-21.21-11.52-9.23,17a13.16,13.16,0,1,1-12.54,23.1L280.78,183,338,214l9.21-17a13.25,13.25,0,1,1,12.64-23.28l9.21-17Z" fill="#c9c9c9"></path><path d="M187,156.39l40.39.93s-5.07,7.6,1.39,16.5l-16.56,13.5Z" opacity="0.08"></path><path d="M130.78,105c-2.12,10.22-3.91,30.11,8.81,59.62a21.75,21.75,0,0,0,19.85,13.07l59.55.41.45-9.13-54.91-9.14s2.2-46.54-13.19-61.36C144.44,91.84,132.72,95.63,130.78,105Z" fill="#68e1fd"></path><path d="M130.78,105c-2.12,10.22-3.91,30.11,8.81,59.62a21.75,21.75,0,0,0,19.85,13.07l59.55.41.45-9.13-54.91-9.14s2.2-46.54-13.19-61.36C144.44,91.84,132.72,95.63,130.78,105Z" fill="#fff" opacity="0.2"></path><path d="M219.06,176.75s7.21,3.65,10.88.15.17-6,0-9.67a2.34,2.34,0,0,0-1.62-2.4,3,3,0,0,0-3.48,1.4c-1,1.62-2.87,4.13-5.4,3.71Z" fill="#f4a28c"></path><path d="M267.5,112.84s-4.43-5.55-9.33,0S263.41,126.45,267.5,112.84Z" fill="#f4a28c"></path><path d="M164.53,159.85a75.35,75.35,0,0,0-10.37,0,37.16,37.16,0,0,1,10.37-3.46Z" opacity="0.08"></path><rect x="132.76" y="32.74" width="5.32" height="5.32" transform="translate(231.32 137.35) rotate(-147.9)" fill="#c9c9c9"></rect><rect x="233.05" y="36.28" width="5.57" height="5.57" transform="translate(374.98 233.45) rotate(-135)" fill="#e6e6e6"></rect><rect x="81.2" y="98.41" width="9.07" height="9.07" transform="translate(4.45 209.43) rotate(-102.86)" fill="#e6e6e6"></rect><rect x="299.54" y="84.96" width="9.07" height="9.07" transform="translate(214.58 393.57) rotate(-90)" fill="#c9c9c9"></rect></svg>